<mxfile host="app.diagrams.net" agent="Mozilla/5.0 (Windows NT 10.0; Win64; x64) AppleWebKit/537.36 (KHTML, like Gecko) Chrome/134.0.0.0 Safari/537.36" version="26.1.3">
  <diagram name="Page-1" id="ljhrQ_gmwhKjy09CIw1z">
    <mxGraphModel dx="1050" dy="569" grid="1" gridSize="10" guides="1" tooltips="1" connect="1" arrows="1" fold="1" page="1" pageScale="1" pageWidth="1169" pageHeight="1654" math="1" shadow="0">
      <root>
        <mxCell id="0" />
        <mxCell id="1" parent="0" />
        <mxCell id="AUcbSMottKHgXGIkMqqh-114" value="" style="rounded=0;whiteSpace=wrap;html=1;fillColor=none;dashed=1;dashPattern=12 12;" vertex="1" parent="1">
          <mxGeometry x="220" y="190" width="620" height="380" as="geometry" />
        </mxCell>
        <mxCell id="AUcbSMottKHgXGIkMqqh-113" value="" style="rounded=0;whiteSpace=wrap;html=1;fillColor=none;dashed=1;" vertex="1" parent="1">
          <mxGeometry x="714" y="130" width="310" height="465" as="geometry" />
        </mxCell>
        <mxCell id="AUcbSMottKHgXGIkMqqh-19" value="&lt;font style=&quot;font-size: 20px;&quot; face=&quot;modern&quot;&gt;DSP&lt;/font&gt;" style="rounded=0;whiteSpace=wrap;html=1;" vertex="1" parent="1">
          <mxGeometry x="880" y="190" width="120" height="380" as="geometry" />
        </mxCell>
        <mxCell id="AUcbSMottKHgXGIkMqqh-30" value="&lt;font data-font-src=&quot;https://sourceforge.net/projects/cm-unicode/&quot; face=&quot;modern&quot; style=&quot;font-size: 20px;&quot;&gt;RFSoC&lt;/font&gt;" style="text;html=1;align=center;verticalAlign=middle;whiteSpace=wrap;rounded=0;" vertex="1" parent="1">
          <mxGeometry x="799" y="140" width="140" height="30" as="geometry" />
        </mxCell>
        <mxCell id="AUcbSMottKHgXGIkMqqh-31" value="" style="group" vertex="1" connectable="0" parent="1">
          <mxGeometry x="740" y="200" width="80" height="40" as="geometry" />
        </mxCell>
        <mxCell id="AUcbSMottKHgXGIkMqqh-11" value="" style="shape=offPageConnector;whiteSpace=wrap;html=1;rotation=90;" vertex="1" parent="AUcbSMottKHgXGIkMqqh-31">
          <mxGeometry x="20" y="-20" width="40" height="80" as="geometry" />
        </mxCell>
        <mxCell id="AUcbSMottKHgXGIkMqqh-12" value="&lt;font face=&quot;modern&quot;&gt;DAC&lt;/font&gt;" style="text;html=1;align=center;verticalAlign=middle;whiteSpace=wrap;rounded=0;" vertex="1" parent="AUcbSMottKHgXGIkMqqh-31">
          <mxGeometry x="20" y="5" width="60" height="30" as="geometry" />
        </mxCell>
        <mxCell id="AUcbSMottKHgXGIkMqqh-32" value="" style="group" vertex="1" connectable="0" parent="1">
          <mxGeometry x="740" y="320" width="80" height="40" as="geometry" />
        </mxCell>
        <mxCell id="AUcbSMottKHgXGIkMqqh-17" value="" style="shape=offPageConnector;whiteSpace=wrap;html=1;rotation=90;" vertex="1" parent="AUcbSMottKHgXGIkMqqh-32">
          <mxGeometry x="20" y="-20" width="40" height="80" as="geometry" />
        </mxCell>
        <mxCell id="AUcbSMottKHgXGIkMqqh-18" value="&lt;font face=&quot;modern&quot;&gt;DAC&lt;/font&gt;" style="text;html=1;align=center;verticalAlign=middle;whiteSpace=wrap;rounded=0;" vertex="1" parent="AUcbSMottKHgXGIkMqqh-32">
          <mxGeometry x="20" y="5" width="60" height="30" as="geometry" />
        </mxCell>
        <mxCell id="AUcbSMottKHgXGIkMqqh-33" value="" style="group" vertex="1" connectable="0" parent="1">
          <mxGeometry x="740" y="520" width="80" height="40" as="geometry" />
        </mxCell>
        <mxCell id="AUcbSMottKHgXGIkMqqh-8" value="" style="shape=offPageConnector;whiteSpace=wrap;html=1;rotation=-90;" vertex="1" parent="AUcbSMottKHgXGIkMqqh-33">
          <mxGeometry x="20" y="-20" width="40" height="80" as="geometry" />
        </mxCell>
        <mxCell id="AUcbSMottKHgXGIkMqqh-9" value="&lt;font face=&quot;modern&quot;&gt;ADC&lt;/font&gt;" style="text;html=1;align=center;verticalAlign=middle;whiteSpace=wrap;rounded=0;" vertex="1" parent="AUcbSMottKHgXGIkMqqh-33">
          <mxGeometry y="5" width="60" height="30" as="geometry" />
        </mxCell>
        <mxCell id="AUcbSMottKHgXGIkMqqh-34" value="" style="group" vertex="1" connectable="0" parent="1">
          <mxGeometry x="740" y="410" width="80" height="40" as="geometry" />
        </mxCell>
        <mxCell id="AUcbSMottKHgXGIkMqqh-6" value="" style="shape=offPageConnector;whiteSpace=wrap;html=1;rotation=-90;" vertex="1" parent="AUcbSMottKHgXGIkMqqh-34">
          <mxGeometry x="20" y="-20" width="40" height="80" as="geometry" />
        </mxCell>
        <mxCell id="AUcbSMottKHgXGIkMqqh-7" value="&lt;font face=&quot;modern&quot;&gt;ADC&lt;/font&gt;" style="text;html=1;align=center;verticalAlign=middle;whiteSpace=wrap;rounded=0;" vertex="1" parent="AUcbSMottKHgXGIkMqqh-34">
          <mxGeometry y="5" width="60" height="30" as="geometry" />
        </mxCell>
        <mxCell id="AUcbSMottKHgXGIkMqqh-37" value="" style="shape=sumEllipse;perimeter=ellipsePerimeter;whiteSpace=wrap;html=1;backgroundOutline=1;" vertex="1" parent="1">
          <mxGeometry x="520" y="415" width="30" height="30" as="geometry" />
        </mxCell>
        <mxCell id="AUcbSMottKHgXGIkMqqh-38" value="" style="shape=sumEllipse;perimeter=ellipsePerimeter;whiteSpace=wrap;html=1;backgroundOutline=1;" vertex="1" parent="1">
          <mxGeometry x="520" y="525" width="30" height="30" as="geometry" />
        </mxCell>
        <mxCell id="AUcbSMottKHgXGIkMqqh-44" value="" style="endArrow=classic;html=1;rounded=0;entryX=1;entryY=0.5;entryDx=0;entryDy=0;" edge="1" parent="1" target="AUcbSMottKHgXGIkMqqh-18">
          <mxGeometry width="50" height="50" relative="1" as="geometry">
            <mxPoint x="880" y="340" as="sourcePoint" />
            <mxPoint x="870" y="260" as="targetPoint" />
          </mxGeometry>
        </mxCell>
        <mxCell id="AUcbSMottKHgXGIkMqqh-45" value="" style="endArrow=classic;html=1;rounded=0;entryX=1;entryY=0.5;entryDx=0;entryDy=0;" edge="1" parent="1">
          <mxGeometry width="50" height="50" relative="1" as="geometry">
            <mxPoint x="880" y="219.93" as="sourcePoint" />
            <mxPoint x="820" y="219.93" as="targetPoint" />
          </mxGeometry>
        </mxCell>
        <mxCell id="AUcbSMottKHgXGIkMqqh-46" value="I" style="text;html=1;align=center;verticalAlign=middle;whiteSpace=wrap;rounded=0;fontFamily=modern;fontSource=https%3A%2F%2Fsourceforge.net%2Fprojects%2Fcm-unicode%2F;" vertex="1" parent="1">
          <mxGeometry x="830" y="190" width="60" height="30" as="geometry" />
        </mxCell>
        <mxCell id="AUcbSMottKHgXGIkMqqh-47" value="Q" style="text;html=1;align=center;verticalAlign=middle;whiteSpace=wrap;rounded=0;fontFamily=modern;fontSource=https%3A%2F%2Fsourceforge.net%2Fprojects%2Fcm-unicode%2F;" vertex="1" parent="1">
          <mxGeometry x="830" y="310" width="60" height="30" as="geometry" />
        </mxCell>
        <mxCell id="AUcbSMottKHgXGIkMqqh-51" value="" style="triangle;whiteSpace=wrap;html=1;rotation=-180;" vertex="1" parent="1">
          <mxGeometry x="340" y="257.25" width="60" height="42" as="geometry" />
        </mxCell>
        <mxCell id="AUcbSMottKHgXGIkMqqh-70" style="edgeStyle=orthogonalEdgeStyle;rounded=0;orthogonalLoop=1;jettySize=auto;html=1;exitX=0;exitY=0.5;exitDx=0;exitDy=0;entryX=0.5;entryY=0;entryDx=0;entryDy=0;" edge="1" parent="1" source="AUcbSMottKHgXGIkMqqh-53" target="AUcbSMottKHgXGIkMqqh-48">
          <mxGeometry relative="1" as="geometry" />
        </mxCell>
        <mxCell id="AUcbSMottKHgXGIkMqqh-53" value="" style="shape=sumEllipse;perimeter=ellipsePerimeter;whiteSpace=wrap;html=1;backgroundOutline=1;" vertex="1" parent="1">
          <mxGeometry x="619" y="205" width="30" height="30" as="geometry" />
        </mxCell>
        <mxCell id="AUcbSMottKHgXGIkMqqh-71" style="edgeStyle=orthogonalEdgeStyle;rounded=0;orthogonalLoop=1;jettySize=auto;html=1;exitX=0;exitY=0.5;exitDx=0;exitDy=0;entryX=0.5;entryY=1;entryDx=0;entryDy=0;" edge="1" parent="1" source="AUcbSMottKHgXGIkMqqh-54" target="AUcbSMottKHgXGIkMqqh-48">
          <mxGeometry relative="1" as="geometry" />
        </mxCell>
        <mxCell id="AUcbSMottKHgXGIkMqqh-54" value="" style="shape=sumEllipse;perimeter=ellipsePerimeter;whiteSpace=wrap;html=1;backgroundOutline=1;" vertex="1" parent="1">
          <mxGeometry x="619" y="325" width="30" height="30" as="geometry" />
        </mxCell>
        <mxCell id="AUcbSMottKHgXGIkMqqh-60" value="" style="group" vertex="1" connectable="0" parent="1">
          <mxGeometry x="602" y="253.75" width="64.00000000000001" height="46.5" as="geometry" />
        </mxCell>
        <mxCell id="AUcbSMottKHgXGIkMqqh-55" value="" style="whiteSpace=wrap;html=1;aspect=fixed;fontFamily=modern;fontSource=https%3A%2F%2Fsourceforge.net%2Fprojects%2Fcm-unicode%2F;" vertex="1" parent="AUcbSMottKHgXGIkMqqh-60">
          <mxGeometry x="10.805194805194805" y="2.536363636363636" width="41.55844155844156" height="41.55844155844156" as="geometry" />
        </mxCell>
        <mxCell id="AUcbSMottKHgXGIkMqqh-56" value="" style="endArrow=none;html=1;rounded=0;entryX=1;entryY=0;entryDx=0;entryDy=0;exitX=0;exitY=1;exitDx=0;exitDy=0;fontFamily=modern;fontSource=https%3A%2F%2Fsourceforge.net%2Fprojects%2Fcm-unicode%2F;" edge="1" parent="AUcbSMottKHgXGIkMqqh-60" source="AUcbSMottKHgXGIkMqqh-55" target="AUcbSMottKHgXGIkMqqh-55">
          <mxGeometry width="50" height="50" relative="1" as="geometry">
            <mxPoint x="10.805194805194805" y="44.38636363636363" as="sourcePoint" />
            <mxPoint x="52.36363636363637" y="2.1136363636363638" as="targetPoint" />
          </mxGeometry>
        </mxCell>
        <mxCell id="AUcbSMottKHgXGIkMqqh-59" value="&lt;font data-font-src=&quot;https://sourceforge.net/projects/cm-unicode/&quot;&gt;$$90^{\textrm{o}}$$&lt;/font&gt;" style="text;html=1;align=center;verticalAlign=middle;whiteSpace=wrap;rounded=0;fontFamily=modern;fontSource=https%3A%2F%2Fsourceforge.net%2Fprojects%2Fcm-unicode%2F;" vertex="1" parent="AUcbSMottKHgXGIkMqqh-60">
          <mxGeometry x="14.129870129870142" y="21.136363636363626" width="49.87012987012987" height="25.363636363636363" as="geometry" />
        </mxCell>
        <mxCell id="AUcbSMottKHgXGIkMqqh-58" value="&lt;font data-font-src=&quot;https://sourceforge.net/projects/cm-unicode/&quot;&gt;$$0^{\textrm{o}}$$&lt;/font&gt;" style="text;html=1;align=center;verticalAlign=middle;whiteSpace=wrap;rounded=0;fontFamily=modern;fontSource=https%3A%2F%2Fsourceforge.net%2Fprojects%2Fcm-unicode%2F;" vertex="1" parent="AUcbSMottKHgXGIkMqqh-60">
          <mxGeometry width="49.87012987012987" height="25.363636363636363" as="geometry" />
        </mxCell>
        <mxCell id="AUcbSMottKHgXGIkMqqh-63" style="edgeStyle=orthogonalEdgeStyle;rounded=0;orthogonalLoop=1;jettySize=auto;html=1;exitX=0;exitY=0.5;exitDx=0;exitDy=0;entryX=1;entryY=0.5;entryDx=0;entryDy=0;" edge="1" parent="1" target="AUcbSMottKHgXGIkMqqh-55">
          <mxGeometry relative="1" as="geometry">
            <mxPoint x="680" y="277" as="sourcePoint" />
          </mxGeometry>
        </mxCell>
        <mxCell id="AUcbSMottKHgXGIkMqqh-61" value="&lt;font data-font-src=&quot;https://sourceforge.net/projects/cm-unicode/&quot; face=&quot;modern&quot;&gt;LO&lt;/font&gt;" style="text;html=1;align=center;verticalAlign=middle;whiteSpace=wrap;rounded=0;" vertex="1" parent="1">
          <mxGeometry x="680" y="262" width="20" height="30" as="geometry" />
        </mxCell>
        <mxCell id="AUcbSMottKHgXGIkMqqh-64" style="edgeStyle=orthogonalEdgeStyle;rounded=0;orthogonalLoop=1;jettySize=auto;html=1;exitX=0.5;exitY=1;exitDx=0;exitDy=0;entryX=1;entryY=0.5;entryDx=0;entryDy=0;" edge="1" parent="1" source="AUcbSMottKHgXGIkMqqh-11" target="AUcbSMottKHgXGIkMqqh-53">
          <mxGeometry relative="1" as="geometry" />
        </mxCell>
        <mxCell id="AUcbSMottKHgXGIkMqqh-65" style="edgeStyle=orthogonalEdgeStyle;rounded=0;orthogonalLoop=1;jettySize=auto;html=1;exitX=0.5;exitY=1;exitDx=0;exitDy=0;entryX=1;entryY=0.5;entryDx=0;entryDy=0;" edge="1" parent="1" source="AUcbSMottKHgXGIkMqqh-17" target="AUcbSMottKHgXGIkMqqh-54">
          <mxGeometry relative="1" as="geometry" />
        </mxCell>
        <mxCell id="AUcbSMottKHgXGIkMqqh-66" style="edgeStyle=orthogonalEdgeStyle;rounded=0;orthogonalLoop=1;jettySize=auto;html=1;exitX=0.5;exitY=1;exitDx=0;exitDy=0;entryX=0.5;entryY=0;entryDx=0;entryDy=0;" edge="1" parent="1" source="AUcbSMottKHgXGIkMqqh-55" target="AUcbSMottKHgXGIkMqqh-54">
          <mxGeometry relative="1" as="geometry" />
        </mxCell>
        <mxCell id="AUcbSMottKHgXGIkMqqh-67" style="edgeStyle=orthogonalEdgeStyle;rounded=0;orthogonalLoop=1;jettySize=auto;html=1;exitX=0.5;exitY=0;exitDx=0;exitDy=0;entryX=0.5;entryY=1;entryDx=0;entryDy=0;" edge="1" parent="1" source="AUcbSMottKHgXGIkMqqh-55" target="AUcbSMottKHgXGIkMqqh-53">
          <mxGeometry relative="1" as="geometry" />
        </mxCell>
        <mxCell id="AUcbSMottKHgXGIkMqqh-92" style="edgeStyle=orthogonalEdgeStyle;rounded=0;orthogonalLoop=1;jettySize=auto;html=1;exitX=0;exitY=0.5;exitDx=0;exitDy=0;" edge="1" parent="1" source="AUcbSMottKHgXGIkMqqh-48" target="AUcbSMottKHgXGIkMqqh-90">
          <mxGeometry relative="1" as="geometry" />
        </mxCell>
        <mxCell id="AUcbSMottKHgXGIkMqqh-48" value="" style="ellipse;whiteSpace=wrap;html=1;aspect=fixed;fontFamily=modern;fontSource=https%3A%2F%2Fsourceforge.net%2Fprojects%2Fcm-unicode%2F;" vertex="1" parent="1">
          <mxGeometry x="520" y="262" width="30" height="30" as="geometry" />
        </mxCell>
        <mxCell id="AUcbSMottKHgXGIkMqqh-49" value="&lt;font data-font-src=&quot;https://sourceforge.net/projects/cm-unicode/&quot; face=&quot;modern&quot;&gt;+&lt;/font&gt;" style="text;html=1;align=center;verticalAlign=middle;whiteSpace=wrap;rounded=0;" vertex="1" parent="1">
          <mxGeometry x="505" y="270.25" width="60" height="30" as="geometry" />
        </mxCell>
        <mxCell id="AUcbSMottKHgXGIkMqqh-50" value="&lt;font data-font-src=&quot;https://sourceforge.net/projects/cm-unicode/&quot; face=&quot;modern&quot;&gt;+&lt;/font&gt;" style="text;html=1;align=center;verticalAlign=middle;whiteSpace=wrap;rounded=0;" vertex="1" parent="1">
          <mxGeometry x="505" y="252" width="60" height="30" as="geometry" />
        </mxCell>
        <mxCell id="AUcbSMottKHgXGIkMqqh-74" style="edgeStyle=orthogonalEdgeStyle;rounded=0;orthogonalLoop=1;jettySize=auto;html=1;exitX=0.5;exitY=1;exitDx=0;exitDy=0;entryX=0;entryY=0.921;entryDx=0;entryDy=0;entryPerimeter=0;" edge="1" parent="1" source="AUcbSMottKHgXGIkMqqh-8" target="AUcbSMottKHgXGIkMqqh-19">
          <mxGeometry relative="1" as="geometry" />
        </mxCell>
        <mxCell id="AUcbSMottKHgXGIkMqqh-75" style="edgeStyle=orthogonalEdgeStyle;rounded=0;orthogonalLoop=1;jettySize=auto;html=1;exitX=0.5;exitY=1;exitDx=0;exitDy=0;entryX=0;entryY=0.631;entryDx=0;entryDy=0;entryPerimeter=0;" edge="1" parent="1" source="AUcbSMottKHgXGIkMqqh-6" target="AUcbSMottKHgXGIkMqqh-19">
          <mxGeometry relative="1" as="geometry" />
        </mxCell>
        <mxCell id="AUcbSMottKHgXGIkMqqh-81" value="" style="verticalLabelPosition=bottom;shadow=0;dashed=0;align=center;html=1;verticalAlign=top;shape=mxgraph.electrical.radio.aerial_-_antenna_2;" vertex="1" parent="1">
          <mxGeometry x="270" y="234" width="20" height="45" as="geometry" />
        </mxCell>
        <mxCell id="AUcbSMottKHgXGIkMqqh-82" value="" style="endArrow=none;html=1;rounded=0;entryX=1;entryY=0.5;entryDx=0;entryDy=0;exitX=0.477;exitY=0.989;exitDx=0;exitDy=0;exitPerimeter=0;" edge="1" parent="1" source="AUcbSMottKHgXGIkMqqh-81" target="AUcbSMottKHgXGIkMqqh-51">
          <mxGeometry width="50" height="50" relative="1" as="geometry">
            <mxPoint x="280" y="279" as="sourcePoint" />
            <mxPoint x="330" y="229" as="targetPoint" />
          </mxGeometry>
        </mxCell>
        <mxCell id="AUcbSMottKHgXGIkMqqh-83" value="" style="verticalLabelPosition=bottom;shadow=0;dashed=0;align=center;html=1;verticalAlign=top;shape=mxgraph.electrical.radio.aerial_-_antenna_2;" vertex="1" parent="1">
          <mxGeometry x="270" y="434" width="20" height="45" as="geometry" />
        </mxCell>
        <mxCell id="AUcbSMottKHgXGIkMqqh-84" value="" style="endArrow=none;html=1;rounded=0;entryX=1;entryY=0.5;entryDx=0;entryDy=0;exitX=0.477;exitY=0.989;exitDx=0;exitDy=0;exitPerimeter=0;" edge="1" parent="1" source="AUcbSMottKHgXGIkMqqh-83">
          <mxGeometry width="50" height="50" relative="1" as="geometry">
            <mxPoint x="280" y="479" as="sourcePoint" />
            <mxPoint x="340" y="478" as="targetPoint" />
          </mxGeometry>
        </mxCell>
        <mxCell id="AUcbSMottKHgXGIkMqqh-86" value="&lt;font data-font-src=&quot;https://sourceforge.net/projects/cm-unicode/&quot; face=&quot;modern&quot;&gt;PA&lt;/font&gt;" style="text;html=1;align=center;verticalAlign=middle;whiteSpace=wrap;rounded=0;" vertex="1" parent="1">
          <mxGeometry x="350" y="263.25" width="60" height="30" as="geometry" />
        </mxCell>
        <mxCell id="AUcbSMottKHgXGIkMqqh-90" value="" style="verticalLabelPosition=bottom;shadow=0;dashed=0;align=center;html=1;verticalAlign=top;shape=mxgraph.electrical.logic_gates.bandpass_filter;" vertex="1" parent="1">
          <mxGeometry x="448" y="258.43" width="42" height="37.15" as="geometry" />
        </mxCell>
        <mxCell id="AUcbSMottKHgXGIkMqqh-93" style="edgeStyle=orthogonalEdgeStyle;rounded=0;orthogonalLoop=1;jettySize=auto;html=1;exitX=0;exitY=0.5;exitDx=0;exitDy=0;exitPerimeter=0;" edge="1" parent="1" source="AUcbSMottKHgXGIkMqqh-90">
          <mxGeometry relative="1" as="geometry">
            <mxPoint x="400" y="277" as="targetPoint" />
          </mxGeometry>
        </mxCell>
        <mxCell id="AUcbSMottKHgXGIkMqqh-98" style="edgeStyle=orthogonalEdgeStyle;rounded=0;orthogonalLoop=1;jettySize=auto;html=1;exitX=1;exitY=0.5;exitDx=0;exitDy=0;entryX=0;entryY=0.5;entryDx=0;entryDy=0;" edge="1" parent="1" source="AUcbSMottKHgXGIkMqqh-94" target="AUcbSMottKHgXGIkMqqh-37">
          <mxGeometry relative="1" as="geometry" />
        </mxCell>
        <mxCell id="AUcbSMottKHgXGIkMqqh-99" style="edgeStyle=orthogonalEdgeStyle;rounded=0;orthogonalLoop=1;jettySize=auto;html=1;exitX=1;exitY=0.5;exitDx=0;exitDy=0;entryX=0;entryY=0.5;entryDx=0;entryDy=0;" edge="1" parent="1" source="AUcbSMottKHgXGIkMqqh-94" target="AUcbSMottKHgXGIkMqqh-38">
          <mxGeometry relative="1" as="geometry" />
        </mxCell>
        <mxCell id="AUcbSMottKHgXGIkMqqh-94" value="" style="triangle;whiteSpace=wrap;html=1;rotation=0;" vertex="1" parent="1">
          <mxGeometry x="340" y="457" width="60" height="42" as="geometry" />
        </mxCell>
        <mxCell id="AUcbSMottKHgXGIkMqqh-95" value="&lt;font data-font-src=&quot;https://sourceforge.net/projects/cm-unicode/&quot; face=&quot;modern&quot;&gt;LNA&lt;/font&gt;" style="text;html=1;align=center;verticalAlign=middle;whiteSpace=wrap;rounded=0;" vertex="1" parent="1">
          <mxGeometry x="328" y="463" width="60" height="30" as="geometry" />
        </mxCell>
        <mxCell id="AUcbSMottKHgXGIkMqqh-106" style="edgeStyle=orthogonalEdgeStyle;rounded=0;orthogonalLoop=1;jettySize=auto;html=1;exitX=1;exitY=0.5;exitDx=0;exitDy=0;exitPerimeter=0;entryX=0;entryY=0.5;entryDx=0;entryDy=0;" edge="1" parent="1" source="AUcbSMottKHgXGIkMqqh-102" target="AUcbSMottKHgXGIkMqqh-7">
          <mxGeometry relative="1" as="geometry" />
        </mxCell>
        <mxCell id="AUcbSMottKHgXGIkMqqh-102" value="" style="verticalLabelPosition=bottom;shadow=0;dashed=0;align=center;html=1;verticalAlign=top;shape=mxgraph.electrical.logic_gates.lowpass_filter;" vertex="1" parent="1">
          <mxGeometry x="610" y="410" width="42" height="40" as="geometry" />
        </mxCell>
        <mxCell id="AUcbSMottKHgXGIkMqqh-105" style="edgeStyle=orthogonalEdgeStyle;rounded=0;orthogonalLoop=1;jettySize=auto;html=1;exitX=1;exitY=0.5;exitDx=0;exitDy=0;exitPerimeter=0;entryX=0;entryY=0.5;entryDx=0;entryDy=0;" edge="1" parent="1" source="AUcbSMottKHgXGIkMqqh-103" target="AUcbSMottKHgXGIkMqqh-9">
          <mxGeometry relative="1" as="geometry" />
        </mxCell>
        <mxCell id="AUcbSMottKHgXGIkMqqh-103" value="" style="verticalLabelPosition=bottom;shadow=0;dashed=0;align=center;html=1;verticalAlign=top;shape=mxgraph.electrical.logic_gates.lowpass_filter;" vertex="1" parent="1">
          <mxGeometry x="610" y="520" width="42" height="40" as="geometry" />
        </mxCell>
        <mxCell id="AUcbSMottKHgXGIkMqqh-107" style="edgeStyle=orthogonalEdgeStyle;rounded=0;orthogonalLoop=1;jettySize=auto;html=1;exitX=1;exitY=0.5;exitDx=0;exitDy=0;entryX=0;entryY=0.5;entryDx=0;entryDy=0;entryPerimeter=0;" edge="1" parent="1" source="AUcbSMottKHgXGIkMqqh-38" target="AUcbSMottKHgXGIkMqqh-103">
          <mxGeometry relative="1" as="geometry" />
        </mxCell>
        <mxCell id="AUcbSMottKHgXGIkMqqh-108" style="edgeStyle=orthogonalEdgeStyle;rounded=0;orthogonalLoop=1;jettySize=auto;html=1;exitX=1;exitY=0.5;exitDx=0;exitDy=0;entryX=0;entryY=0.5;entryDx=0;entryDy=0;entryPerimeter=0;" edge="1" parent="1" source="AUcbSMottKHgXGIkMqqh-37" target="AUcbSMottKHgXGIkMqqh-102">
          <mxGeometry relative="1" as="geometry" />
        </mxCell>
        <mxCell id="AUcbSMottKHgXGIkMqqh-96" style="edgeStyle=orthogonalEdgeStyle;rounded=0;orthogonalLoop=1;jettySize=auto;html=1;exitX=0;exitY=0.5;exitDx=0;exitDy=0;entryX=0.5;entryY=0;entryDx=0;entryDy=0;jumpStyle=arc;" edge="1" parent="1" source="AUcbSMottKHgXGIkMqqh-53" target="AUcbSMottKHgXGIkMqqh-37">
          <mxGeometry relative="1" as="geometry">
            <Array as="points">
              <mxPoint x="570" y="220" />
              <mxPoint x="570" y="380" />
              <mxPoint x="535" y="380" />
            </Array>
          </mxGeometry>
        </mxCell>
        <mxCell id="AUcbSMottKHgXGIkMqqh-97" style="edgeStyle=orthogonalEdgeStyle;rounded=0;orthogonalLoop=1;jettySize=auto;html=1;exitX=0;exitY=0.5;exitDx=0;exitDy=0;entryX=0.5;entryY=0;entryDx=0;entryDy=0;jumpStyle=arc;" edge="1" parent="1" source="AUcbSMottKHgXGIkMqqh-54" target="AUcbSMottKHgXGIkMqqh-38">
          <mxGeometry relative="1" as="geometry">
            <Array as="points">
              <mxPoint x="580" y="340" />
              <mxPoint x="580" y="480" />
              <mxPoint x="535" y="480" />
            </Array>
          </mxGeometry>
        </mxCell>
        <mxCell id="AUcbSMottKHgXGIkMqqh-109" value="&lt;font data-font-src=&quot;https://sourceforge.net/projects/cm-unicode/&quot; face=&quot;modern&quot;&gt;I&lt;/font&gt;" style="text;html=1;align=center;verticalAlign=middle;whiteSpace=wrap;rounded=0;" vertex="1" parent="1">
          <mxGeometry x="529" y="404" width="60" height="30" as="geometry" />
        </mxCell>
        <mxCell id="AUcbSMottKHgXGIkMqqh-110" value="&lt;font data-font-src=&quot;https://sourceforge.net/projects/cm-unicode/&quot; face=&quot;modern&quot;&gt;Q&lt;/font&gt;" style="text;html=1;align=center;verticalAlign=middle;whiteSpace=wrap;rounded=0;" vertex="1" parent="1">
          <mxGeometry x="527" y="510" width="60" height="30" as="geometry" />
        </mxCell>
        <mxCell id="AUcbSMottKHgXGIkMqqh-111" value="&lt;font data-font-src=&quot;https://sourceforge.net/projects/cm-unicode/&quot; face=&quot;modern&quot;&gt;Tx&lt;/font&gt;" style="text;html=1;align=center;verticalAlign=middle;whiteSpace=wrap;rounded=0;" vertex="1" parent="1">
          <mxGeometry x="276" y="227" width="60" height="30" as="geometry" />
        </mxCell>
        <mxCell id="AUcbSMottKHgXGIkMqqh-112" value="&lt;font data-font-src=&quot;https://sourceforge.net/projects/cm-unicode/&quot; face=&quot;modern&quot;&gt;Rx&lt;/font&gt;" style="text;html=1;align=center;verticalAlign=middle;whiteSpace=wrap;rounded=0;" vertex="1" parent="1">
          <mxGeometry x="276" y="430" width="60" height="30" as="geometry" />
        </mxCell>
        <mxCell id="AUcbSMottKHgXGIkMqqh-115" value="&lt;font style=&quot;font-size: 18px;&quot;&gt;x4&lt;/font&gt;" style="text;html=1;align=center;verticalAlign=middle;whiteSpace=wrap;rounded=0;" vertex="1" parent="1">
          <mxGeometry x="210" y="190" width="60" height="30" as="geometry" />
        </mxCell>
      </root>
    </mxGraphModel>
  </diagram>
</mxfile>
